# xmcd CD database file
#
# Track frame offsets:
#	150
#	9392
#	25587
#	52585
#	66880
#	83442
#	93510
#	101177
#	125730
#	142142
#
# Disc length: 1982 seconds
#
# Revision: 0
# Processed by: cddbd v1.5.1PL2 Copyright (c) Steve Scherf et al.
# Submitted via: CDex 1.51
#
DISCID=7a07bc0a
DTITLE=Various Artist - エレック・コミックソング・コレクション-抱腹絶倒- DISC2
DYEAR=2006
DGENRE=JPop
TTITLE0=カツ丼/中島田鶴雄
TTITLE1=君を食べちゃいたい/まりちゃんズ
TTITLE2=葛飾にバッタをみた/なぎらけんいち
TTITLE3=戦争小唄/泉谷しげる
TTITLE4=野菜がたべたい/ピピ&コット
TTITLE5=バイオリンのおけいこ/佐藤公彦(ケメ)
TTITLE6=インスタントラーメン/古井戸
TTITLE7=極付けお万の方/つボイノリオ
TTITLE8=くちづけ/まりちゃんズ
TTITLE9=黒いかばん/泉谷しげる
EXTD=YEAR: 2006
EXTT0=
EXTT1=
EXTT2=
EXTT3=
EXTT4=
EXTT5=
EXTT6=
EXTT7=
EXTT8=
EXTT9=
PLAYORDER=
